<?xml version="1.0" encoding="UTF-8" ?>
<!DOCTYPE svg PUBLIC "-//W3C//DTD SVG 1.1//EN" "http://www.w3.org/Graphics/SVG/1.1/DTD/svg11.dtd">
<svg width="1000pt" height="1000pt" viewBox="0 0 150 150" version="1.1" xmlns="http://www.w3.org/2000/svg">
<g id="#5b6a71ff">
<path fill="#5b6a71" stroke="#5b6a71" stroke-width="0.09375" opacity="1.00" d=" M 76.52 32.48 C 85.09 22.91 98.41 18.85 110.93 18.41 C 114.14 17.97 114.78 21.63 115.46 23.92 C 118.28 35.51 118.48 48.68 112.13 59.19 C 107.75 65.46 102.53 71.07 97.74 77.01 C 103.72 87.87 100.14 101.34 92.95 110.68 C 92.32 103.80 89.72 97.14 84.92 92.10 C 82.55 95.23 78.29 95.60 75.37 92.97 C 74.79 92.58 73.65 91.81 73.08 91.42 C 68.48 88.14 63.87 84.87 59.24 81.63 C 58.22 80.91 57.20 80.17 56.20 79.42 C 52.92 77.57 52.02 73.63 53.92 70.43 C 47.50 67.74 40.39 67.69 33.70 69.34 C 40.21 59.50 51.48 51.53 63.79 53.20 C 68.02 46.29 71.59 38.93 76.52 32.48 M 76.51 37.43 C 69.51 48.90 62.90 60.61 56.45 72.39 C 54.82 74.34 56.87 76.37 58.48 77.44 C 64.78 81.86 71.02 86.36 77.34 90.75 C 78.60 91.73 80.74 92.60 81.80 90.87 C 89.33 82.39 96.69 73.75 103.91 65.01 C 107.35 60.90 110.98 56.71 112.50 51.46 C 115.47 41.63 114.68 30.88 111.44 21.22 C 98.50 21.86 84.00 26.03 76.51 37.43 Z" />
<path fill="#5b6a71" stroke="#5b6a71" stroke-width="0.09375" opacity="1.00" d=" M 88.22 35.28 C 95.31 32.66 103.74 38.40 103.90 45.94 C 104.69 53.33 97.36 59.97 90.09 58.59 C 83.46 57.74 78.57 50.66 80.19 44.16 C 81.06 40.06 84.22 36.54 88.22 35.28 M 88.31 38.45 C 82.23 40.82 81.04 49.91 86.30 53.76 C 91.29 58.17 100.19 54.71 100.84 48.07 C 102.20 41.35 94.46 35.39 88.31 38.45 Z" />
<path fill="#5b6a71" stroke="#5b6a71" stroke-width="0.09375" opacity="1.00" d=" M 29.55 126.46 C 33.22 121.89 35.79 116.33 40.29 112.52 C 40.10 114.82 38.47 116.52 37.23 118.33 C 33.37 123.74 29.50 129.14 25.70 134.60 C 24.94 135.75 23.89 136.65 22.80 137.48 C 23.65 133.15 27.38 130.16 29.55 126.46 Z" />
<path fill="#5b6a71" stroke="#5b6a71" stroke-width="0.09375" opacity="1.00" d=" M 35.30 128.06 C 37.54 125.13 39.29 121.77 42.08 119.30 C 42.64 121.46 40.61 122.97 39.64 124.64 C 36.98 127.88 35.26 131.95 31.82 134.47 C 32.01 131.90 33.96 130.09 35.30 128.06 Z" />
</g>
<g id="#dcf2f9ff">
<path fill="#dcf2f9" stroke="#dcf2f9" stroke-width="0.09375" opacity="1.00" d=" M 76.51 37.43 C 84.00 26.03 98.50 21.86 111.44 21.22 C 114.68 30.88 115.47 41.63 112.50 51.46 C 110.98 56.71 107.35 60.90 103.91 65.01 C 96.69 73.75 89.33 82.39 81.80 90.87 C 80.74 92.60 78.60 91.73 77.34 90.75 C 71.02 86.36 64.78 81.86 58.48 77.44 C 56.87 76.37 54.82 74.34 56.45 72.39 C 62.90 60.61 69.51 48.90 76.51 37.43 M 88.22 35.28 C 84.22 36.54 81.06 40.06 80.19 44.16 C 78.57 50.66 83.46 57.74 90.09 58.59 C 97.36 59.97 104.69 53.33 103.90 45.94 C 103.74 38.40 95.31 32.66 88.22 35.28 Z" />
</g>
<g id="#fefefeff">
<path fill="#fefefe" stroke="#fefefe" stroke-width="0.09375" opacity="1.00" d=" M 88.31 38.45 C 94.46 35.39 102.20 41.35 100.84 48.07 C 100.19 54.71 91.29 58.17 86.30 53.76 C 81.04 49.91 82.23 40.82 88.31 38.45 Z" />
</g>
<g id="#ed8117ff">
<path fill="#ed8117" stroke="#ed8117" stroke-width="0.09375" opacity="1.00" d=" M 48.89 94.97 C 49.84 89.24 52.59 83.92 56.20 79.42 C 57.20 80.17 58.22 80.91 59.24 81.63 C 56.91 85.91 54.23 90.62 55.30 95.68 C 55.73 98.24 58.32 100.01 60.86 99.65 C 66.04 99.10 69.64 94.90 73.08 91.42 C 73.65 91.81 74.79 92.58 75.37 92.97 C 71.77 98.80 66.74 104.14 60.19 106.53 C 57.16 107.64 53.29 107.62 50.94 105.12 C 48.48 102.39 48.40 98.41 48.89 94.97 Z" />
</g>
<g id="#eebb18ff">
<path fill="#eebb18" stroke="#eebb18" stroke-width="0.09375" opacity="1.00" d=" M 59.24 81.63 C 63.87 84.87 68.48 88.14 73.08 91.42 C 69.64 94.90 66.04 99.10 60.86 99.65 C 58.32 100.01 55.73 98.24 55.30 95.68 C 54.23 90.62 56.91 85.91 59.24 81.63 Z" />
</g>
</svg>
